@startuml

class 用户{
	- 账号
    - 密码
    - 手机号
    - 邮箱

	# 注册()
    # 登录()
    # 订单管理()
}

abstract 房东 {
    - 收入明细

    + 上架房源()
    + 更新房源信息()
    + 修改价格()
    + 下架()
    + 退款处理()
}
abstract 房客 {
    - 余额查询

    + 检索民宿()
    + 预订民宿()
    + 服务评价()
    + 退款()
}

房东 -up-|> 用户
房客 -right-|> 用户




@enduml